<?xml version="1.0" encoding="UTF-8" standalone="no"?>
<!-- Created with Inkscape (http://www.inkscape.org/) -->

<svg
   width="52.656605mm"
   height="52.665508mm"
   viewBox="0 0 52.656605 52.665508"
   version="1.1"
   id="svg5"
   xml:space="preserve"
   xmlns="http://www.w3.org/2000/svg"
   xmlns:svg="http://www.w3.org/2000/svg"><defs
     id="defs2" /><g
     id="layer1"
     transform="translate(-49.590777,-113.68068)"><path
       style="fill:#f5f5f5;stroke-width:0.0282962"
       d="m 75.141221,166.33129 c -0.60427,-0.0148 -1.85711,-0.10858 -2.40519,-0.18001 -0.95324,-0.12423 -1.65001,-0.24301 -2.47526,-0.42197 -2.39533,-0.51943 -4.88878,-1.45694 -7.01814,-2.63873 -0.2101,-0.11661 -0.44566,-0.24715 -0.52348,-0.2901 -0.0778,-0.0429 -0.21615,-0.12736 -0.30741,-0.18758 -0.0913,-0.0602 -0.17098,-0.10951 -0.17716,-0.10951 -0.0207,0 -0.7349,-0.45032 -0.81706,-0.51516 -0.0156,-0.0123 -0.15563,-0.10651 -0.31126,-0.20938 -0.3207,-0.212 -0.78755,-0.55213 -0.80172,-0.58411 -0.005,-0.0117 -0.0212,-0.0213 -0.0357,-0.0213 -0.0256,0 -0.7477,-0.54879 -0.86038,-0.65386 -0.0629,-0.0587 -0.25916,-0.22086 -0.42427,-0.35066 -0.25626,-0.20146 -1.13869,-1.00508 -1.54266,-1.40487 -0.68356,-0.6765 -1.53492,-1.60234 -1.51021,-1.64233 0.008,-0.0134 -0.002,-0.0208 -0.0224,-0.0166 -0.0206,0.004 -0.0376,-0.0136 -0.0378,-0.0398 -4.3e-4,-0.0516 -0.0325,-0.094 -0.0712,-0.094 -0.0479,0 -1.13103,-1.36327 -1.13103,-1.42358 0,-0.0159 -0.0101,-0.0332 -0.0224,-0.0384 -0.10124,-0.0426 -1.28113,-1.85208 -1.64829,-2.5278 -0.0423,-0.0778 -0.14377,-0.26245 -0.22553,-0.4103 -0.84087,-1.52052 -1.74437,-3.72163 -2.16617,-5.27726 -0.50765,-1.8722 -0.7478,-3.16698 -0.9027,-4.86695 -0.24102,-2.64514 -0.0978,-5.18751 0.44153,-7.83807 0.1113,-0.54699 0.38702,-1.63009 0.54589,-2.14441 0.0683,-0.22124 0.14346,-0.46592 0.16693,-0.54374 0.18283,-0.60607 0.59395,-1.68067 0.97429,-2.54666 0.22381,-0.50961 0.82943,-1.73976 0.9524,-1.93456 0.0402,-0.0637 0.0731,-0.1207 0.0731,-0.12669 0,-0.0218 0.42032,-0.74875 0.62025,-1.07271 0.1204,-0.1951 0.21776,-0.32491 0.23547,-0.31396 0.018,0.0111 0.0219,0.005 0.01,-0.0144 -0.0189,-0.0306 0.24126,-0.46629 0.26858,-0.44976 0.007,0.004 0.009,0.002 0.006,-0.004 -0.0165,-0.0294 0.0555,-0.11557 0.0826,-0.0988 0.0193,0.0119 0.0232,0.006 0.0103,-0.0146 -0.0262,-0.0423 0.0364,-0.12219 0.0764,-0.0975 0.0178,0.011 0.0209,0.004 0.008,-0.0168 -0.025,-0.0404 0.20906,-0.40271 0.24559,-0.38013 0.0129,0.008 0.02,0.004 0.0158,-0.009 -0.0107,-0.0328 0.11844,-0.23555 0.14998,-0.23555 0.0143,0 0.026,-0.0135 0.026,-0.03 0,-0.0469 0.20071,-0.29634 0.23142,-0.28764 0.0151,0.004 0.0194,-0.005 0.009,-0.0214 -0.01,-0.016 0.0305,-0.0894 0.0899,-0.16311 0.0593,-0.0737 0.11749,-0.14682 0.12924,-0.16255 0.0968,-0.12955 0.49164,-0.62996 0.51826,-0.65683 0.0185,-0.0187 0.0427,-0.0251 0.0536,-0.0142 0.0109,0.0109 0.0156,0.005 0.0104,-0.0124 -0.0134,-0.0458 0.29067,-0.4078 0.32479,-0.38671 0.0159,0.01 0.0194,0.003 0.008,-0.0152 -0.0111,-0.018 -0.007,-0.0327 0.01,-0.0327 0.0165,0 0.0268,-0.0107 0.0229,-0.0237 -0.007,-0.024 0.36031,-0.43714 0.734,-0.82519 0.1124,-0.11672 0.23141,-0.24736 0.26447,-0.29031 0.0331,-0.0429 0.0738,-0.0696 0.0905,-0.0593 0.0167,0.0103 0.0225,0.006 0.0128,-0.01 -0.0184,-0.0298 0.12062,-0.16826 0.15737,-0.15676 0.0117,0.004 0.018,-0.009 0.0142,-0.0287 -0.004,-0.0195 0.009,-0.0322 0.0283,-0.0283 0.0195,0.004 0.0322,-0.003 0.0283,-0.0154 -0.0124,-0.0394 1.15826,-1.14939 1.2985,-1.23121 0.0215,-0.0125 0.0676,-0.0509 0.10244,-0.0853 0.0349,-0.0344 0.17799,-0.15781 0.31806,-0.27424 0.14006,-0.11644 0.26103,-0.21878 0.26881,-0.22744 0.008,-0.009 0.0651,-0.0532 0.12734,-0.099 0.0623,-0.0458 0.11955,-0.0903 0.12733,-0.099 0.008,-0.009 0.0651,-0.0533 0.12733,-0.099 0.0623,-0.0458 0.11955,-0.0897 0.12733,-0.0977 0.008,-0.008 0.0651,-0.0519 0.12734,-0.0977 0.0623,-0.0458 0.11955,-0.0909 0.12733,-0.10032 0.0409,-0.0494 0.90507,-0.65742 1.3728,-0.96593 0.74217,-0.48952 1.42384,-0.8926 2.13594,-1.26301 0.16341,-0.085 0.34168,-0.17864 0.39615,-0.20808 0.40369,-0.21818 1.51511,-0.71666 2.2637,-1.01528 1.27802,-0.50982 2.51418,-0.88492 4.08881,-1.2407 0.69452,-0.15692 2.10406,-0.3808 2.78718,-0.44269 0.10116,-0.009 0.3049,-0.0284 0.45274,-0.0428 0.99858,-0.097 2.9192,-0.12582 3.91904,-0.0587 3.84502,0.25793 7.32275,1.22785 10.639404,2.96729 3.89783,2.04425 7.25514,5.0743 9.71042,8.76388 2.226175,3.34529 3.633495,7.08762 4.165925,11.07799 0.16581,1.24269 0.2131,2.01499 0.2131,3.48044 0,1.46241 -0.0475,2.23946 -0.21203,3.4663 -0.77182,5.7562 -3.357675,10.9982 -7.454145,15.11089 -4.43196,4.44951 -10.226304,7.1467 -16.469254,7.66625 -0.63937,0.0532 -1.95998,0.10542 -2.39022,0.0945 -0.17898,-0.005 -0.44001,-0.0111 -0.58007,-0.0145 z m 2.53251,-3.9275 c 1.65148,-0.13632 3.03127,-0.38415 4.48496,-0.80556 3.2406,-0.93941 6.080724,-2.50004 8.672814,-4.76566 0.37626,-0.32887 1.4963,-1.43823 1.83563,-1.81812 2.89026,-3.23576 4.78265,-7.17176 5.46327,-11.36311 0.21155,-1.30278 0.28826,-2.2827 0.28744,-3.67178 -9.6e-4,-1.62083 -0.14177,-3.01415 -0.45899,-4.54155 -0.80437,-3.87315 -2.59789,-7.4071 -5.30269,-10.44842 -0.36603,-0.41157 -1.50103,-1.5267 -1.93785,-1.90392 -2.09622,-1.81024 -4.33572,-3.15215 -6.836964,-4.09672 -5.09447,-1.92387 -10.7214,-1.92391 -15.82835,-1e-4 -0.52223,0.19673 -0.60666,0.23153 -1.27205,0.52435 -2.3743,1.04489 -4.71943,2.66353 -6.65278,4.59186 -2.8808,2.87332 -4.8821,6.35299 -5.91031,10.27628 -0.50736,1.9359 -0.73799,3.92477 -0.70004,6.03681 0.0207,1.15251 0.11519,2.25966 0.27165,3.18333 0.56164,3.31576 1.7189,6.22457 3.56864,8.96992 2.95615,4.38746 7.45652,7.63914 12.5483,9.06661 1.59525,0.44722 3.25289,0.71581 4.99429,0.80923 0.60757,0.0326 2.1432,0.009 2.77303,-0.0435 z m -14.99651,-12.54788 c -0.0207,-0.0387 -0.0275,-2.7231 -0.0222,-8.80721 l 0.008,-8.75158 0.064,-0.22637 c 0.0792,-0.28032 0.24987,-0.64177 0.39674,-0.84023 0.14074,-0.19017 0.45572,-0.4875 0.6573,-0.62045 0.32371,-0.21351 0.68872,-0.35664 1.15781,-0.45403 0.38259,-0.0794 1.32027,-0.10226 1.71398,-0.0417 0.99556,0.15304 1.76465,0.62194 2.26465,1.38075 0.0753,0.11432 0.41295,0.76811 0.75028,1.45288 0.33733,0.68477 1.06887,2.16821 1.62565,3.29652 1.08503,2.19882 1.78061,3.61005 2.44768,4.966 2.12829,4.32616 2.15574,4.38098 2.20015,4.39426 0.0224,0.007 0.18106,-0.28668 0.42798,-0.79115 0.21584,-0.44098 0.58659,-1.19652 0.82389,-1.67897 0.76819,-1.56183 1.24534,-2.53353 1.55621,-3.16918 0.16744,-0.34239 0.49861,-1.01725 0.73593,-1.4997 0.23732,-0.48245 0.57476,-1.17005 0.74987,-1.528 0.17511,-0.35795 0.51547,-1.05192 0.75636,-1.54215 0.24089,-0.49023 0.73928,-1.5059 1.10755,-2.25705 0.36826,-0.75115 0.70996,-1.43238 0.75933,-1.51385 0.46112,-0.76101 1.14377,-1.22563 2.10215,-1.43077 0.30755,-0.0658 0.39957,-0.0727 0.976234,-0.0727 0.58537,0 0.66598,0.006 1.00057,0.0772 1.05676,0.22405 1.79834,0.77393 2.12374,1.57474 0.16861,0.41494 0.15805,-0.20821 0.15805,9.33144 0,6.75933 -0.008,8.74677 -0.0339,8.77303 -0.0491,0.0491 -3.561544,0.0491 -3.610614,0 -0.0262,-0.0262 -0.034,-1.69008 -0.034,-7.31676 v -7.28281 l -0.0827,-0.0827 c -0.10195,-0.10195 -0.22471,-0.10918 -0.3234,-0.019 -0.0383,0.035 -0.25387,0.42656 -0.47895,0.87011 -0.22508,0.44354 -0.65447,1.29031 -0.95421,1.8817 -0.29973,0.59139 -0.7072,1.39359 -0.90547,1.78266 -0.19827,0.38908 -0.59298,1.16581 -0.87713,1.72608 -0.63166,1.24544 -1.31296,2.58744 -1.86748,3.67851 -0.22939,0.45133 -0.66896,1.31719 -0.97683,1.92415 -0.64506,1.27171 -0.82583,1.59703 -1.07941,1.94252 -0.24159,0.32914 -0.41753,0.47924 -0.75937,0.6478 -0.45225,0.22301 -0.66662,0.26785 -1.27333,0.26632 -0.43619,-0.001 -0.54184,-0.0103 -0.7357,-0.064 -0.28138,-0.0779 -0.64928,-0.2519 -0.87516,-0.41394 -0.31067,-0.22284 -0.69118,-0.64797 -0.9514,-1.06296 -0.0537,-0.0856 -1.60795,-3.17285 -3.45394,-6.86055 -2.01397,-4.02327 -3.37969,-6.72042 -3.41472,-6.74368 -0.0445,-0.0295 -0.0724,-0.0313 -0.11703,-0.007 l -0.0586,0.0314 v 7.51352 c 0,5.12515 -0.009,7.53092 -0.0293,7.56826 -0.0285,0.0532 -0.0786,0.0547 -1.82411,0.0547 -1.7556,0 -1.79547,-0.001 -1.8246,-0.0556 z"
       id="path302" /></g></svg>
